<mxfile host="65bd71144e">
    <diagram id="FwxTD80278cs-7ZG4ogK" name="Page-1">
        <mxGraphModel dx="775" dy="1010" grid="1" gridSize="10" guides="1" tooltips="1" connect="1" arrows="1" fold="1" page="1" pageScale="1" pageWidth="850" pageHeight="1100" math="0" shadow="0">
            <root>
                <mxCell id="0"/>
                <mxCell id="1" parent="0"/>
                <mxCell id="2" value="LangChain" style="rounded=0;whiteSpace=wrap;html=1;" vertex="1" parent="1">
                    <mxGeometry x="375" y="40" width="120" height="40" as="geometry"/>
                </mxCell>
                <mxCell id="4" value="" style="endArrow=none;html=1;" edge="1" parent="1">
                    <mxGeometry width="50" height="50" relative="1" as="geometry">
                        <mxPoint x="435" y="120" as="sourcePoint"/>
                        <mxPoint x="435" y="80" as="targetPoint"/>
                    </mxGeometry>
                </mxCell>
                <mxCell id="5" value="" style="endArrow=none;dashed=1;html=1;" edge="1" parent="1">
                    <mxGeometry width="50" height="50" relative="1" as="geometry">
                        <mxPoint x="215" y="120" as="sourcePoint"/>
                        <mxPoint x="655" y="120" as="targetPoint"/>
                    </mxGeometry>
                </mxCell>
                <mxCell id="8" value="LLMs" style="rounded=0;whiteSpace=wrap;html=1;fillColor=#dae8fc;strokeColor=none;" vertex="1" parent="1">
                    <mxGeometry x="165" y="160" width="100" height="40" as="geometry"/>
                </mxCell>
                <mxCell id="10" value="" style="endArrow=classic;html=1;entryX=0.5;entryY=0;entryDx=0;entryDy=0;" edge="1" parent="1" target="8">
                    <mxGeometry width="50" height="50" relative="1" as="geometry">
                        <mxPoint x="215" y="130" as="sourcePoint"/>
                        <mxPoint x="215" y="270" as="targetPoint"/>
                    </mxGeometry>
                </mxCell>
                <mxCell id="11" value="Memory" style="rounded=0;whiteSpace=wrap;html=1;fillColor=#dae8fc;strokeColor=none;" vertex="1" parent="1">
                    <mxGeometry x="320" y="160" width="100" height="40" as="geometry"/>
                </mxCell>
                <mxCell id="12" value="Chains" style="rounded=0;whiteSpace=wrap;html=1;fillColor=#dae8fc;strokeColor=none;" vertex="1" parent="1">
                    <mxGeometry x="460" y="160" width="100" height="40" as="geometry"/>
                </mxCell>
                <mxCell id="13" value="Agents" style="rounded=0;whiteSpace=wrap;html=1;fillColor=#dae8fc;strokeColor=none;" vertex="1" parent="1">
                    <mxGeometry x="600" y="160" width="100" height="40" as="geometry"/>
                </mxCell>
                <mxCell id="14" value="" style="endArrow=classic;html=1;entryX=0.5;entryY=0;entryDx=0;entryDy=0;" edge="1" parent="1">
                    <mxGeometry width="50" height="50" relative="1" as="geometry">
                        <mxPoint x="369.85" y="130" as="sourcePoint"/>
                        <mxPoint x="369.85" y="160" as="targetPoint"/>
                    </mxGeometry>
                </mxCell>
                <mxCell id="15" value="" style="endArrow=classic;html=1;entryX=0.5;entryY=0;entryDx=0;entryDy=0;" edge="1" parent="1">
                    <mxGeometry width="50" height="50" relative="1" as="geometry">
                        <mxPoint x="510" y="130" as="sourcePoint"/>
                        <mxPoint x="510" y="160" as="targetPoint"/>
                    </mxGeometry>
                </mxCell>
                <mxCell id="16" value="" style="endArrow=classic;html=1;entryX=0.5;entryY=0;entryDx=0;entryDy=0;" edge="1" parent="1">
                    <mxGeometry width="50" height="50" relative="1" as="geometry">
                        <mxPoint x="670" y="130" as="sourcePoint"/>
                        <mxPoint x="670" y="160" as="targetPoint"/>
                    </mxGeometry>
                </mxCell>
                <mxCell id="17" value="OpenAi, Anthropic, Gpt, etc..." style="text;html=1;align=center;verticalAlign=middle;whiteSpace=wrap;rounded=0;fillColor=#f5f5f5;fontColor=#333333;strokeColor=none;" vertex="1" parent="1">
                    <mxGeometry x="150" y="200" width="130" height="30" as="geometry"/>
                </mxCell>
                <mxCell id="18" value="Conversation history, etc..." style="text;html=1;align=center;verticalAlign=middle;whiteSpace=wrap;rounded=0;fillColor=#f5f5f5;fontColor=#333333;strokeColor=none;" vertex="1" parent="1">
                    <mxGeometry x="305" y="200" width="130" height="30" as="geometry"/>
                </mxCell>
                <mxCell id="19" value="Multi-step workflows" style="text;html=1;align=center;verticalAlign=middle;whiteSpace=wrap;rounded=0;fillColor=#f5f5f5;fontColor=#333333;strokeColor=none;" vertex="1" parent="1">
                    <mxGeometry x="445" y="200" width="130" height="30" as="geometry"/>
                </mxCell>
                <mxCell id="20" value="LLMs that can use tools/actions" style="text;html=1;align=center;verticalAlign=middle;whiteSpace=wrap;rounded=0;fillColor=#f5f5f5;fontColor=#333333;strokeColor=none;" vertex="1" parent="1">
                    <mxGeometry x="585" y="200" width="130" height="30" as="geometry"/>
                </mxCell>
                <mxCell id="21" value="&lt;table&gt;&lt;thead data-end=&quot;3131&quot; data-start=&quot;3032&quot;&gt;&lt;tr data-end=&quot;3131&quot; data-start=&quot;3032&quot;&gt;&lt;th data-col-size=&quot;sm&quot; data-end=&quot;3052&quot; data-start=&quot;3032&quot;&gt;Parameter&lt;/th&gt;&lt;th data-col-size=&quot;sm&quot; data-end=&quot;3091&quot; data-start=&quot;3052&quot;&gt;Purpose&lt;/th&gt;&lt;th data-col-size=&quot;sm&quot; data-end=&quot;3131&quot; data-start=&quot;3091&quot;&gt;Use When...&lt;/th&gt;&lt;/tr&gt;&lt;/thead&gt;&lt;/table&gt;&lt;table&gt;&lt;tbody&gt;&lt;tr data-end=&quot;3330&quot; data-start=&quot;3231&quot;&gt;&lt;td data-col-size=&quot;sm&quot; data-end=&quot;3251&quot; data-start=&quot;3231&quot;&gt;&lt;code style=&quot;background-color: light-dark(#ffffff, var(--ge-dark-color, #121212));&quot; data-end=&quot;3246&quot; data-start=&quot;3233&quot;&gt;temperature&lt;/code&gt;&lt;/td&gt;&lt;td data-col-size=&quot;sm&quot; data-end=&quot;3290&quot; data-start=&quot;3251&quot;&gt;Controls randomness&lt;/td&gt;&lt;td data-col-size=&quot;sm&quot; data-end=&quot;3330&quot; data-start=&quot;3290&quot;&gt;You want more/less creativity&lt;/td&gt;&lt;/tr&gt;&lt;/tbody&gt;&lt;/table&gt;&lt;table&gt;&lt;tbody&gt;&lt;tr data-end=&quot;3430&quot; data-start=&quot;3331&quot;&gt;&lt;td data-col-size=&quot;sm&quot; data-end=&quot;3351&quot; data-start=&quot;3331&quot;&gt;&lt;code style=&quot;background-color: light-dark(#ffffff, var(--ge-dark-color, #121212));&quot; data-end=&quot;3340&quot; data-start=&quot;3333&quot;&gt;top_p&lt;/code&gt;&lt;/td&gt;&lt;td data-col-size=&quot;sm&quot; data-end=&quot;3390&quot; data-start=&quot;3351&quot;&gt;Limits output diversity&lt;/td&gt;&lt;td data-col-size=&quot;sm&quot; data-end=&quot;3430&quot; data-start=&quot;3390&quot;&gt;You want to prune surprising outputs&lt;/td&gt;&lt;/tr&gt;&lt;/tbody&gt;&lt;/table&gt;&lt;table&gt;&lt;tbody&gt;&lt;tr data-end=&quot;3530&quot; data-start=&quot;3431&quot;&gt;&lt;td data-col-size=&quot;sm&quot; data-end=&quot;3451&quot; data-start=&quot;3431&quot;&gt;&lt;code style=&quot;background-color: light-dark(#ffffff, var(--ge-dark-color, #121212));&quot; data-end=&quot;3445&quot; data-start=&quot;3433&quot;&gt;max_tokens&lt;/code&gt;&lt;/td&gt;&lt;td data-col-size=&quot;sm&quot; data-end=&quot;3490&quot; data-start=&quot;3451&quot;&gt;Caps length of the output&lt;/td&gt;&lt;td data-col-size=&quot;sm&quot; data-end=&quot;3530&quot; data-start=&quot;3490&quot;&gt;You want short or fast responses&lt;/td&gt;&lt;/tr&gt;&lt;/tbody&gt;&lt;/table&gt;&lt;table&gt;&lt;tbody&gt;&lt;tr data-end=&quot;3630&quot; data-start=&quot;3531&quot;&gt;&lt;td data-col-size=&quot;sm&quot; data-end=&quot;3553&quot; data-start=&quot;3531&quot;&gt;&lt;code style=&quot;background-color: light-dark(#ffffff, var(--ge-dark-color, #121212));&quot; data-end=&quot;3552&quot; data-start=&quot;3533&quot;&gt;frequency_penalty&lt;/code&gt;&lt;/td&gt;&lt;td data-col-size=&quot;sm&quot; data-end=&quot;3590&quot; data-start=&quot;3553&quot;&gt;Reduces repetition&lt;/td&gt;&lt;td data-col-size=&quot;sm&quot; data-end=&quot;3630&quot; data-start=&quot;3590&quot;&gt;You get repeated words/sentences&lt;/td&gt;&lt;/tr&gt;&lt;/tbody&gt;&lt;/table&gt;&lt;table&gt;&lt;tbody&gt;&lt;tr data-end=&quot;3730&quot; data-start=&quot;3631&quot;&gt;&lt;td data-col-size=&quot;sm&quot; data-end=&quot;3653&quot; data-start=&quot;3631&quot;&gt;&lt;code style=&quot;background-color: light-dark(#ffffff, var(--ge-dark-color, #121212));&quot; data-end=&quot;3651&quot; data-start=&quot;3633&quot;&gt;presence_penalty&lt;/code&gt;&lt;/td&gt;&lt;td data-col-size=&quot;sm&quot; data-end=&quot;3690&quot; data-start=&quot;3653&quot;&gt;Boosts topic diversity&lt;/td&gt;&lt;td data-col-size=&quot;sm&quot; data-end=&quot;3730&quot; data-start=&quot;3690&quot;&gt;You want exploration/new ideas&lt;/td&gt;&lt;/tr&gt;&lt;/tbody&gt;&lt;/table&gt;" style="text;html=1;align=center;verticalAlign=middle;whiteSpace=wrap;rounded=0;" vertex="1" parent="1">
                    <mxGeometry x="240" y="260" width="475" height="260" as="geometry"/>
                </mxCell>
            </root>
        </mxGraphModel>
    </diagram>
</mxfile>